<svg xmlns="http://www.w3.org/2000/svg" width="278.039" height="49.221" viewBox="0 0 278.039 49.221">
  <g id="Group_16" data-name="Group 16" transform="translate(-442.036 -445.863)">
    <path id="Path_503" data-name="Path 503" d="M17.052-14.364a4.8,4.8,0,0,0-4.284,2.212,4.345,4.345,0,0,0-3.976-2.212,4.5,4.5,0,0,0-4,2.044V-14H1.764V0H4.788V-7.84c0-2.548,1.4-3.7,3.108-3.7,1.652,0,2.632,1.092,2.632,3.052V0h3.024V-7.84c0-2.548,1.26-3.7,3.052-3.7,1.652,0,2.716,1.092,2.716,3.052V0h3.024V-8.68C22.344-12.18,20.216-14.364,17.052-14.364Zm9.66,8.652H37.856a9.165,9.165,0,0,0,.112-1.26,7.065,7.065,0,0,0-7.028-7.392A7.141,7.141,0,0,0,23.548-7c0,4.2,3,7.364,7.616,7.364A7.072,7.072,0,0,0,37.3-2.688L34.8-4.144a4.274,4.274,0,0,1-3.612,1.736A4.208,4.208,0,0,1,26.712-5.712Zm-.028-2.464a4.07,4.07,0,0,1,4.228-3.444,3.9,3.9,0,0,1,4,3.444ZM50.428-14v2.072a5.71,5.71,0,0,0-4.872-2.436A7.1,7.1,0,0,0,38.5-7.14,7.1,7.1,0,0,0,45.556.084a5.71,5.71,0,0,0,4.872-2.436V-.644c0,2.436-1.568,3.864-4.172,3.864-2.436,0-3.472-.952-4.088-2.156l-2.6,1.512C40.74,4.816,43.12,5.964,46.2,5.964c3.668,0,7.2-2.1,7.2-6.608V-14ZM45.976-2.744a4.313,4.313,0,0,1-4.452-4.4,4.313,4.313,0,0,1,4.452-4.4,4.313,4.313,0,0,1,4.452,4.4A4.313,4.313,0,0,1,45.976-2.744Zm17.052-11.62a4.82,4.82,0,0,0-4.34,2.156V-19.6H55.664V0h3.024V-7.5c0-2.856,1.568-4.032,3.556-4.032A2.918,2.918,0,0,1,65.38-8.288V0H68.4V-8.6C68.4-12.236,66.164-14.364,63.028-14.364Zm20.916,3.276V-14H80.472v-3.92l-3.024.9V-14H74.872v2.912h2.576v6.72C77.448-.728,79.3.56,83.944,0V-2.716c-2.3.112-3.472.14-3.472-1.652v-6.72Zm3.3,5.376H98.392a9.165,9.165,0,0,0,.112-1.26,7.065,7.065,0,0,0-7.028-7.392A7.141,7.141,0,0,0,84.084-7c0,4.2,3,7.364,7.616,7.364a7.072,7.072,0,0,0,6.132-3.052L95.34-4.144a4.274,4.274,0,0,1-3.612,1.736A4.208,4.208,0,0,1,87.248-5.712ZM87.22-8.176a4.07,4.07,0,0,1,4.228-3.444,3.9,3.9,0,0,1,4,3.444ZM106.428.364a7.039,7.039,0,0,0,6.3-3.64l-2.6-1.484A4.109,4.109,0,0,1,106.4-2.6,4.27,4.27,0,0,1,102.06-7a4.27,4.27,0,0,1,4.34-4.4,3.913,3.913,0,0,1,3.668,2.156l2.6-1.512a6.916,6.916,0,0,0-6.244-3.612A7.223,7.223,0,0,0,99.036-7,7.24,7.24,0,0,0,106.428.364Zm14.588-14.728a4.82,4.82,0,0,0-4.34,2.156V-19.6h-3.024V0h3.024V-7.5c0-2.856,1.568-4.032,3.556-4.032a2.918,2.918,0,0,1,3.136,3.248V0h3.024V-8.6C126.392-12.236,124.152-14.364,121.016-14.364Zm14.728,0a4.82,4.82,0,0,0-4.34,2.156V-14H128.38V0H131.4V-7.5c0-2.856,1.568-4.032,3.556-4.032A2.918,2.918,0,0,1,138.1-8.288V0h3.024V-8.6C141.12-12.236,138.88-14.364,135.744-14.364ZM149.716.364A7.308,7.308,0,0,0,157.108-7a7.291,7.291,0,0,0-7.392-7.364A7.308,7.308,0,0,0,142.324-7,7.326,7.326,0,0,0,149.716.364Zm0-2.94A4.3,4.3,0,0,1,145.348-7a4.3,4.3,0,0,1,4.368-4.424A4.3,4.3,0,0,1,154.084-7,4.3,4.3,0,0,1,149.716-2.576ZM158.592,0h3.024V-20.44h-3.024Zm11.872.364A7.308,7.308,0,0,0,177.856-7a7.291,7.291,0,0,0-7.392-7.364A7.308,7.308,0,0,0,163.072-7,7.326,7.326,0,0,0,170.464.364Zm0-2.94A4.3,4.3,0,0,1,166.1-7a4.3,4.3,0,0,1,4.368-4.424A4.3,4.3,0,0,1,174.832-7,4.3,4.3,0,0,1,170.464-2.576ZM190.484-14v2.072a5.71,5.71,0,0,0-4.872-2.436,7.1,7.1,0,0,0-7.056,7.224A7.1,7.1,0,0,0,185.612.084a5.71,5.71,0,0,0,4.872-2.436V-.644c0,2.436-1.568,3.864-4.172,3.864-2.436,0-3.472-.952-4.088-2.156l-2.6,1.512c1.176,2.24,3.556,3.388,6.636,3.388,3.668,0,7.2-2.1,7.2-6.608V-14ZM186.032-2.744a4.313,4.313,0,0,1-4.452-4.4,4.313,4.313,0,0,1,4.452-4.4,4.313,4.313,0,0,1,4.452,4.4A4.313,4.313,0,0,1,186.032-2.744Zm11.2-13.356a1.954,1.954,0,0,0,1.932-1.932,1.936,1.936,0,0,0-1.932-1.932,1.936,1.936,0,0,0-1.932,1.932A1.954,1.954,0,0,0,197.232-16.1ZM195.72,0h3.024V-14H195.72Zm7.644-5.712h11.144a9.165,9.165,0,0,0,.112-1.26,7.065,7.065,0,0,0-7.028-7.392A7.141,7.141,0,0,0,200.2-7c0,4.2,3,7.364,7.616,7.364a7.072,7.072,0,0,0,6.132-3.052l-2.492-1.456a4.274,4.274,0,0,1-3.612,1.736A4.208,4.208,0,0,1,203.364-5.712Zm-.028-2.464a4.07,4.07,0,0,1,4.228-3.444,3.9,3.9,0,0,1,4,3.444Zm14.84-1.96c0-1.008.952-1.484,2.044-1.484a2.729,2.729,0,0,1,2.632,1.6l2.548-1.428a5.637,5.637,0,0,0-5.18-2.912c-2.856,0-5.124,1.652-5.124,4.284,0,5.012,7.532,3.612,7.532,6.1,0,1.12-1.036,1.568-2.38,1.568a3.075,3.075,0,0,1-3.108-2.016l-2.6,1.512c.9,2.016,2.912,3.276,5.712,3.276,3.024,0,5.46-1.512,5.46-4.312C225.708-9.128,218.176-7.588,218.176-10.136Z" transform="translate(494.367 478.295)" fill="#4a4a4a"/>
    <g id="megh_technologies_logo" data-name="megh technologies logo" transform="translate(442.036 445.863)">
      <path id="Union_1" data-name="Union 1" d="M18.745,40.183c-.737,2.807-3.614,3.34-7.393,2.23,2.934-.164,6-.707,5.676-4.557-.274-3.211-.536-4.978,2-7.249a8.269,8.269,0,0,0,1.61,1.179c-2.294,3.112-1.614,6.065,1.288,7.968,3.253,2.132,5.474,6.981-2.872,9.466C21.98,46.725,24.629,44,18.745,40.183Zm5.143.086c-2.739-1.973-3.59-4.23-2.444-8.089a8.175,8.175,0,0,0,2.07.573c-.44,3.919,1.48,5,3.456,6.279,3.157,2.04,1.9,7.147-2.054,8.2C27.114,44.49,26.675,42.277,23.888,40.269Zm4.69-.918c-2.46-2.081-3.893-3.148-3.7-6.548a8.261,8.261,0,0,0,1.973-.3c.571,3.823,3.139,5.435,6.537,4.734,3.809-.786,8.8,1.081,4.648,8.732.309-3.831.265-7.628-6.6-6.181,1.459,2.509-.2,4.917-3.662,6.8C29.738,44.4,31.528,41.847,28.578,39.351Zm-19.707,1.5c3.492-.388,4.744-2.265,4.187-5.655-.547-3.332.444-5.53,3.978-7.455A8.183,8.183,0,0,0,18.1,29.608c-3.078,2.465-2.483,4.588-1.984,6.886.608,2.8-1.87,5.057-4.651,5.057A5.157,5.157,0,0,1,8.872,40.851ZM35.14,36.218c-3.333.536-5.529-.463-7.441-4a8.137,8.137,0,0,0,1.87-1.055c2.455,3.087,4.58,2.5,6.88,2.008,3.676-.784,6.387,3.724,4.332,7.256C40.405,36.93,38.532,35.673,35.14,36.218ZM3.317,38.127c3.832.295,7.629.238,6.159-6.621-2.5,1.468-4.918-.186-6.81-3.64,2.194,1.956,4.751,3.737,7.237.779,2.073-2.468,3.135-3.9,6.536-3.721a8.243,8.243,0,0,0,.307,1.972c-3.821.584-5.424,3.157-4.712,6.553.586,2.793-.255,6.229-3.772,6.23A10.821,10.821,0,0,1,3.317,38.127Zm34.5-5.87c-3.212.262-4.98.518-7.242-2.028a8.229,8.229,0,0,0,1.185-1.606c3.1,2.3,6.06,1.635,7.972-1.261,2.143-3.245,7-5.449,9.457,2.9-2.486-2.932-5.2-5.589-9.039.282,2.8.746,3.328,3.625,2.2,7.4C42.2,35.014,41.665,31.943,37.814,32.257ZM17.746,24.611a6.847,6.847,0,1,1,6.848,6.847A6.847,6.847,0,0,1,17.746,24.611Zm-15.734.4c2.748,2.19,4.959,1.744,6.958-1.051,1.963-2.745,4.218-3.6,8.08-2.471a8.172,8.172,0,0,0-.565,2.071c-3.921-.427-5,1.5-6.268,3.477a3.859,3.859,0,0,1-3.337,1.792A5.128,5.128,0,0,1,2.011,25.008Zm30.142,2.815a8.138,8.138,0,0,0,.579-2.067c3.918.454,5.008-1.463,6.291-3.434,2.05-3.15,7.153-1.872,8.191,2.081-2.732-2.209-4.947-1.777-6.964,1-1.4,1.935-2.948,2.923-5.1,2.923A10.506,10.506,0,0,1,32.153,27.823ZM0,19.157c2.506,2.915,5.236,5.554,9.037-.343-2.81-.727-3.352-3.6-2.255-7.385.173,2.934.727,6,4.576,5.661,3.21-.285,4.976-.552,7.255,1.978a8.25,8.25,0,0,0-1.174,1.613C14.321,18.4,11.37,19.089,9.477,22c-1.033,1.587-2.711,2.931-4.45,2.932C3.193,24.929,1.29,23.435,0,19.157Zm32.787,5.232a8.231,8.231,0,0,0-.294-1.973c3.826-.559,5.446-3.12,4.757-6.521-.773-3.812,1.111-8.8,8.749-4.619-3.831-.321-7.627-.29-6.2,6.58,2.513-1.451,4.917.219,6.786,3.685-2.18-1.971-4.726-3.769-7.232-.828-1.955,2.3-3.02,3.7-5.936,3.7C33.213,24.409,33,24.4,32.787,24.389Zm-1.628-4.694c3.1-2.444,2.514-4.571,2.031-6.874-.771-3.679,3.746-6.375,7.272-4.307-3.494.365-4.759,2.233-4.225,5.627.524,3.335-.481,5.527-4.029,7.428A8.137,8.137,0,0,0,31.159,19.695Zm-2.624-2.25c2.273-3.127,1.573-6.076-1.342-7.959C23.926,7.375,21.672,2.542,30,0c-2.906,2.515-5.537,5.254.373,9.035.718-2.812,3.592-3.364,7.378-2.28-2.933.183-6,.747-5.645,4.6.3,3.208.569,4.974-1.954,7.262A8.281,8.281,0,0,0,28.535,17.445ZM12.717,16.171c-3.671.809-6.412-3.68-4.381-7.227.4,3.491,2.281,4.735,5.67,4.167,3.33-.559,5.531.425,7.468,3.953a8.172,8.172,0,0,0-1.863,1.068C17.135,15.062,15.015,15.665,12.717,16.171Zm12.939.326c.414-3.923-1.514-4.992-3.5-6.255-3.171-2.018-1.944-7.133,2-8.211C21.975,4.786,22.429,7,25.231,8.984c2.752,1.955,3.618,4.207,2.5,8.072A8.2,8.2,0,0,0,25.656,16.5Zm-9.907-4.416c-3.8.812-8.812-1.022-4.707-8.7-.283,3.833-.213,7.63,6.643,6.137-1.477-2.5.169-4.919,3.616-6.823-1.948,2.2-3.722,4.764-.754,7.239,2.474,2.065,3.915,3.121,3.743,6.523a8.253,8.253,0,0,0-1.971.314C21.721,12.952,19.143,11.357,15.749,12.081Z" fill="#e93434"/>
    </g>
  </g>
</svg>
